<svg xmlns="http://www.w3.org/2000/svg" width="1600" height="1120" viewBox="0 0 1600 1120">
  <defs>
    <filter id="shadow" x="-20%" y="-20%" width="140%" height="140%">
      <feDropShadow dx="0" dy="8" stdDeviation="10" flood-color="#102033" flood-opacity="0.12"/>
    </filter>
    <style>
      .bg { fill: #f6f8fb; }
      .title { font: 700 42px Arial, Helvetica, sans-serif; fill: #172033; }
      .subtitle { font: 400 19px Arial, Helvetica, sans-serif; fill: #667084; }
      .section-title { font: 700 18px Arial, Helvetica, sans-serif; fill: #1d2939; }
      .root-title { font: 700 24px Arial, Helvetica, sans-serif; fill: #101828; }
      .folder-title { font: 700 18px Arial, Helvetica, sans-serif; fill: #172033; }
      .file-text { font: 500 15px "SF Mono", Menlo, Consolas, monospace; fill: #344054; }
      .small-text { font: 500 13px "SF Mono", Menlo, Consolas, monospace; fill: #667084; }
      .note-text { font: 500 14px Arial, Helvetica, sans-serif; fill: #667084; }
      .root-card { fill: #ffffff; stroke: #d0d5dd; stroke-width: 1.5; rx: 8; filter: url(#shadow); }
      .app-card { fill: #ffffff; stroke: #b9c7d8; stroke-width: 1.5; rx: 8; filter: url(#shadow); }
      .support-card { fill: #ffffff; stroke: #d0d5dd; stroke-width: 1.3; rx: 8; }
      .folder-card { fill: #fbfdff; stroke: #d0d5dd; stroke-width: 1.2; rx: 8; }
      .folder-tab { fill: #4f7cff; }
      .folder-body { fill: #e9f0ff; stroke: #b9c7ff; stroke-width: 1; }
      .entry { fill: #ffffff; stroke: #e4e7ec; stroke-width: 1; rx: 6; }
      .chip { fill: #ffffff; stroke: #d0d5dd; stroke-width: 1; rx: 16; }
      .line { stroke: #98a2b3; stroke-width: 2; fill: none; }
      .accent-blue { fill: #1d4ed8; }
      .accent-green { fill: #047857; }
      .accent-amber { fill: #b45309; }
      .accent-rose { fill: #be123c; }
      .accent-cyan { fill: #0e7490; }
      .accent-violet { fill: #6d28d9; }
      .muted { fill: #eef2f7; }
    </style>
  </defs>

  <rect class="bg" width="1600" height="1120"/>

  <text class="title" x="80" y="78">HY-chat Folder Structure</text>
  <text class="subtitle" x="80" y="112">Extensible AI chat layout with RAG, tool calling, streaming, and caching.</text>

  <rect class="root-card" x="80" y="150" width="1440" height="130"/>
  <g transform="translate(110 178)">
    <rect class="folder-tab" x="0" y="0" width="74" height="22" rx="5"/>
    <rect class="folder-body" x="0" y="14" width="128" height="72" rx="8"/>
    <text class="root-title" x="154" y="42">HY-chat/</text>
    <text class="subtitle" x="154" y="72">project root</text>
  </g>

  <g transform="translate(500 180)">
    <rect class="chip" x="0" y="0" width="126" height="34"/>
    <text class="file-text" x="18" y="23">README.md</text>
    <rect class="chip" x="142" y="0" width="150" height="34"/>
    <text class="file-text" x="160" y="23">pyproject.toml</text>
    <rect class="chip" x="308" y="0" width="142" height="34"/>
    <text class="file-text" x="326" y="23">uv.lock</text>
    <rect class="chip" x="466" y="0" width="168" height="34"/>
    <text class="file-text" x="484" y="23">requirements.txt</text>
    <rect class="chip" x="650" y="0" width="128" height="34"/>
    <text class="file-text" x="668" y="23">Dockerfile</text>
    <rect class="chip" x="794" y="0" width="186" height="34"/>
    <text class="file-text" x="812" y="23">docker-compose.yml</text>
    <rect class="chip" x="0" y="48" width="142" height="34"/>
    <text class="file-text" x="18" y="71">.env.example</text>
    <rect class="chip" x="158" y="48" width="128" height="34"/>
    <text class="file-text" x="176" y="71">.gitignore</text>
    <rect class="chip" x="302" y="48" width="164" height="34"/>
    <text class="file-text" x="320" y="71">.python-version</text>
    <rect class="chip" x="482" y="48" width="132" height="34"/>
    <text class="file-text" x="500" y="71">langgraph.json</text>
  </g>

  <path class="line" d="M800 280 L800 330"/>
  <path class="line" d="M800 330 L220 330 L220 360"/>
  <path class="line" d="M800 330 L800 360"/>
  <path class="line" d="M800 330 L1360 330 L1360 360"/>

  <rect class="support-card" x="110" y="360" width="220" height="170"/>
  <text class="section-title" x="140" y="395">scripts/</text>
  <rect class="entry" x="140" y="420" width="160" height="42"/>
  <circle class="accent-amber" cx="160" cy="441" r="5"/>
  <text class="file-text" x="176" y="446">smoke_test.sh</text>

  <rect class="app-card" x="380" y="360" width="840" height="655"/>
  <g transform="translate(410 390)">
    <rect class="folder-tab" x="0" y="0" width="54" height="17" rx="4"/>
    <rect class="folder-body" x="0" y="10" width="94" height="52" rx="7"/>
    <text class="root-title" x="120" y="36">app/</text>
    <text class="subtitle" x="120" y="64">application package</text>
  </g>

  <rect class="entry" x="980" y="400" width="184" height="42"/>
  <circle class="accent-blue" cx="1002" cy="421" r="5"/>
  <text class="file-text" x="1018" y="426">main.py</text>
  <rect class="entry" x="980" y="452" width="184" height="42"/>
  <circle class="muted" cx="1002" cy="473" r="5"/>
  <text class="file-text" x="1018" y="478">__init__.py</text>

  <g transform="translate(420 520)">
    <rect class="folder-card" x="0" y="0" width="230" height="150"/>
    <text class="folder-title" x="22" y="34">api/</text>
    <rect class="entry" x="22" y="56" width="186" height="34"/>
    <circle class="accent-green" cx="40" cy="73" r="4"/>
    <text class="file-text" x="54" y="78">routers/</text>
    <rect class="entry" x="22" y="98" width="186" height="34"/>
    <circle class="accent-green" cx="40" cy="115" r="4"/>
    <text class="file-text" x="54" y="120">routers/</text>
  </g>

  <g transform="translate(690 520)">
    <rect class="folder-card" x="0" y="0" width="230" height="150"/>
    <text class="folder-title" x="22" y="34">agents/</text>
    <rect class="entry" x="22" y="56" width="186" height="34"/>
    <circle class="accent-violet" cx="40" cy="73" r="4"/>
    <text class="file-text" x="54" y="78">graph.py</text>
    <rect class="entry" x="22" y="98" width="186" height="34"/>
    <circle class="accent-violet" cx="40" cy="115" r="4"/>
    <text class="file-text" x="54" y="120">chat.py</text>
  </g>

  <g transform="translate(960 520)">
    <rect class="folder-card" x="0" y="0" width="230" height="150"/>
    <text class="folder-title" x="22" y="34">core/</text>
    <rect class="entry" x="22" y="56" width="186" height="34"/>
    <circle class="accent-blue" cx="40" cy="73" r="4"/>
    <text class="file-text" x="54" y="78">config.py</text>
    <rect class="entry" x="22" y="98" width="186" height="34"/>
    <circle class="muted" cx="40" cy="115" r="4"/>
    <text class="file-text" x="54" y="120">__init__.py</text>
  </g>

  <g transform="translate(420 705)">
    <rect class="folder-card" x="0" y="0" width="230" height="192"/>
    <text class="folder-title" x="22" y="34">db/</text>
    <rect class="entry" x="22" y="56" width="186" height="34"/>
    <circle class="accent-rose" cx="40" cy="73" r="4"/>
    <text class="file-text" x="54" y="78">models.py</text>
    <rect class="entry" x="22" y="98" width="186" height="34"/>
    <circle class="accent-rose" cx="40" cy="115" r="4"/>
    <text class="file-text" x="54" y="120">session.py</text>
    <rect class="entry" x="22" y="140" width="186" height="34"/>
    <circle class="accent-rose" cx="40" cy="157" r="4"/>
    <text class="file-text" x="54" y="162">init_db.py</text>
  </g>

  <g transform="translate(690 705)">
    <rect class="folder-card" x="0" y="0" width="230" height="192"/>
    <text class="folder-title" x="22" y="34">rag/</text>
    <rect class="entry" x="22" y="56" width="186" height="34"/>
    <circle class="accent-green" cx="40" cy="73" r="4"/>
    <text class="file-text" x="54" y="78">service.py</text>
    <rect class="entry" x="22" y="98" width="186" height="34"/>
    <circle class="accent-green" cx="40" cy="115" r="4"/>
    <text class="file-text" x="54" y="120">loaders.py</text>
    <rect class="entry" x="22" y="140" width="186" height="34"/>
    <circle class="accent-green" cx="40" cy="157" r="4"/>
    <text class="file-text" x="54" y="162">embeddings.py</text>
  </g>

  <g transform="translate(960 705)">
    <rect class="folder-card" x="0" y="0" width="230" height="192"/>
    <text class="folder-title" x="22" y="34">cache/</text>
    <rect class="entry" x="22" y="56" width="186" height="34"/>
    <circle class="accent-blue" cx="40" cy="73" r="4"/>
    <text class="file-text" x="54" y="78">service.py</text>
    <rect class="entry" x="22" y="98" width="186" height="34"/>
    <circle class="muted" cx="40" cy="115" r="4"/>
    <text class="file-text" x="54" y="120">__init__.py</text>
  </g>

  <g transform="translate(420 925)">
    <rect class="folder-card" x="0" y="0" width="365" height="70"/>
    <text class="folder-title" x="22" y="28">models/</text>
    <text class="small-text" x="118" y="28">catalog.py  router.py</text>
  </g>

  <g transform="translate(825 925)">
    <rect class="folder-card" x="0" y="0" width="365" height="70"/>
    <text class="folder-title" x="22" y="28">tools/</text>
    <text class="small-text" x="96" y="28">registry.py  external.py</text>
    <text class="small-text" x="96" y="52">rag_tools.py  builtin.py</text>
  </g>

  <rect class="support-card" x="1270" y="360" width="220" height="170"/>
  <text class="section-title" x="1300" y="395">workspace/</text>
  <rect class="entry" x="1300" y="420" width="160" height="42"/>
  <circle class="accent-cyan" cx="1320" cy="441" r="5"/>
  <text class="file-text" x="1336" y="446">README.md</text>
  <rect class="entry" x="1300" y="472" width="160" height="42"/>
  <circle class="muted" cx="1320" cy="493" r="5"/>
  <text class="file-text" x="1336" y="498">.gitkeep</text>

  <rect class="support-card" x="110" y="580" width="220" height="236"/>
  <text class="section-title" x="140" y="615">root support</text>
  <rect class="entry" x="140" y="642" width="160" height="34"/>
  <text class="file-text" x="156" y="664">Dockerfile</text>
  <rect class="entry" x="140" y="684" width="160" height="34"/>
  <text class="file-text" x="156" y="706">docker-compose.yml</text>
  <rect class="entry" x="140" y="726" width="160" height="34"/>
  <text class="file-text" x="156" y="748">requirements.txt</text>
  <rect class="entry" x="140" y="768" width="160" height="34"/>
  <text class="file-text" x="156" y="790">pyproject.toml</text>

  <rect class="support-card" x="1270" y="580" width="220" height="236"/>
  <text class="section-title" x="1300" y="615">frontend/</text>
  <text class="note-text" x="1300" y="654">LangChain Agent Chat UI</text>
  <text class="small-text" x="1300" y="690">src/app/</text>
  <text class="small-text" x="1300" y="724">src/components/</text>
  <text class="small-text" x="1300" y="758">package.json</text>
  <text class="small-text" x="1300" y="792">Dockerfile</text>

  <text class="note-text" x="80" y="1075">Generated from the local filesystem at /Users/sanderhe/Desktop/Agent-Project/HY-chat</text>
</svg>
